<?xml version="1.0" standalone="no"?>
<!DOCTYPE svg PUBLIC "-//W3C//DTD SVG 20010904//EN"
 "http://www.w3.org/TR/2001/REC-SVG-20010904/DTD/svg10.dtd">
<svg version="1.0" xmlns="http://www.w3.org/2000/svg"
 width="800.000000pt" height="800.000000pt" viewBox="0 0 800.000000 800.000000"
 preserveAspectRatio="xMidYMid meet">
<metadata>
Created by potrace 1.14, written by Peter Selinger 2001-2017
</metadata>
<g transform="translate(0.000000,800.000000) scale(0.100000,-0.100000)"
fill="#000000" stroke="none">
<path d="M5160 7870 c-232 -32 -427 -110 -578 -230 -29 -24 -95 -93 -146 -154
-136 -164 -227 -236 -348 -277 -92 -31 -167 -22 -278 32 -77 38 -100 58 -247
204 -91 92 -192 183 -232 209 -231 154 -596 240 -880 207 -144 -17 -240 -44
-356 -101 -284 -138 -473 -400 -552 -762 -27 -125 -24 -388 6 -528 62 -291
196 -581 399 -865 91 -127 167 -218 314 -376 116 -126 178 -212 164 -226 -9
-9 -76 39 -161 117 -104 95 -210 164 -385 249 -427 209 -908 276 -1235 174
-248 -78 -424 -232 -549 -480 -139 -278 -125 -615 39 -918 59 -108 127 -203
220 -305 94 -102 119 -153 119 -235 0 -74 -31 -145 -99 -225 -55 -66 -126
-208 -151 -305 -27 -103 -25 -332 4 -437 85 -313 316 -589 622 -743 196 -98
347 -130 590 -122 231 7 384 47 568 148 175 96 201 109 300 143 146 51 276 76
427 83 113 5 257 -6 272 -20 9 -10 -62 -208 -104 -289 -53 -103 -106 -161
-176 -193 -126 -58 -282 -54 -491 12 -87 27 -96 24 -96 -32 1 -69 62 -161 155
-232 119 -90 233 -132 380 -140 276 -14 498 136 651 442 31 61 57 112 59 114
3 2 27 -42 54 -98 l50 -103 -23 -61 c-86 -229 -200 -436 -334 -610 -24 -32
-40 -62 -36 -66 5 -4 66 -50 136 -101 95 -70 125 -97 117 -106 -17 -21 -171
-92 -234 -109 -84 -21 -209 -19 -286 5 -137 42 -269 149 -318 256 -88 191
-245 230 -369 89 -47 -53 -57 -90 -49 -173 9 -104 85 -237 199 -351 116 -116
250 -192 423 -237 87 -23 121 -27 260 -27 187 -1 282 17 421 82 106 50 164 90
241 164 l61 60 151 -112 c83 -61 160 -111 171 -111 11 0 82 47 157 105 l138
104 35 -33 c113 -107 264 -190 415 -228 130 -32 390 -33 519 0 264 66 480 238
587 466 63 135 60 231 -8 307 -98 109 -231 105 -318 -8 -19 -25 -43 -69 -53
-96 -24 -68 -127 -164 -236 -217 -163 -81 -316 -76 -504 14 -54 27 -91 50 -87
56 4 6 61 52 128 102 67 50 126 94 130 98 5 5 -19 45 -54 91 -79 103 -176 264
-238 394 -57 118 -128 308 -136 362 -6 36 -2 42 59 108 56 62 65 68 71 50 58
-160 160 -330 257 -428 120 -120 248 -177 410 -185 192 -9 355 54 489 187 64
63 80 86 93 131 19 65 13 125 -13 116 -247 -82 -403 -96 -536 -45 -117 44
-214 178 -278 384 -46 149 -48 140 25 164 81 28 217 38 300 21 95 -18 167 -51
312 -142 253 -158 463 -248 679 -289 96 -18 136 -21 277 -16 195 6 314 32 522
115 159 64 191 81 250 130 231 193 390 586 375 927 -8 177 -48 286 -147 401
-104 121 -135 231 -90 318 11 22 59 76 108 122 241 225 364 549 332 874 -29
279 -143 545 -304 706 -156 156 -331 228 -586 240 -412 21 -940 -174 -1330
-490 -231 -188 -251 -159 -40 59 200 208 361 438 494 708 177 359 240 601 240
932 0 344 -71 543 -263 736 -157 156 -333 247 -583 300 -107 23 -355 33 -458
19z m360 -135 c362 -55 641 -245 747 -506 81 -200 93 -487 33 -760 -93 -421
-353 -888 -677 -1216 -143 -145 -177 -201 -178 -291 0 -58 3 -66 28 -88 65
-56 190 -15 347 115 268 222 617 392 950 462 153 33 391 33 510 1 175 -48 310
-143 402 -287 45 -70 58 -96 104 -210 162 -401 67 -824 -249 -1108 -101 -90
-137 -159 -137 -264 0 -116 39 -204 143 -323 79 -91 117 -205 117 -356 0 -290
-162 -663 -348 -799 -84 -61 -384 -170 -535 -195 -91 -15 -282 -12 -379 5
-186 32 -413 128 -634 267 -227 144 -308 173 -490 173 l-121 0 14 32 c42 101
-26 231 -138 264 -41 13 -41 13 -35 53 14 86 58 193 114 276 67 100 230 268
322 333 130 91 272 146 377 147 104 0 265 -81 369 -187 111 -112 172 -277 160
-433 -5 -69 -31 -187 -51 -234 -7 -17 -5 -18 21 -12 49 12 324 150 409 206
321 210 518 449 597 726 19 67 23 103 23 234 0 170 -11 231 -66 385 -82 227
-263 393 -496 457 -113 31 -356 31 -499 0 -279 -60 -560 -197 -762 -371 -96
-84 -371 -377 -487 -521 -272 -336 -431 -666 -490 -1012 -6 -37 -7 -38 -50
-38 -56 0 -56 -3 -11 172 64 253 175 504 332 748 172 266 202 317 264 428 85
155 163 332 215 487 166 496 111 919 -167 1289 -104 139 -245 282 -493 497
-231 201 -461 428 -555 548 -36 45 -67 89 -70 97 -4 9 -19 -4 -45 -40 -109
-148 -331 -372 -650 -656 -299 -267 -452 -447 -550 -645 -102 -207 -130 -329
-129 -565 1 -137 5 -186 27 -290 66 -318 230 -675 487 -1060 214 -323 334
-580 406 -875 32 -133 32 -132 -15 -137 l-39 -3 -21 103 c-63 297 -221 610
-457 907 -197 246 -519 568 -664 663 -185 122 -417 217 -630 258 -139 26 -367
24 -474 -4 -273 -75 -447 -253 -530 -545 -140 -487 61 -921 584 -1260 152 -98
450 -237 437 -204 -51 132 -70 301 -47 410 16 80 72 187 131 252 91 98 246
186 357 201 181 24 460 -137 667 -386 87 -104 130 -178 160 -273 33 -103 33
-127 0 -127 -59 0 -141 -61 -164 -123 -27 -70 -8 -170 41 -223 l19 -21 -148
-6 c-298 -10 -526 -79 -808 -242 -146 -84 -352 -135 -548 -135 -249 0 -452 66
-649 211 -96 71 -235 223 -291 317 -176 293 -166 638 25 875 170 210 167 408
-8 598 -150 163 -258 342 -310 515 -24 78 -28 106 -28 229 -1 164 12 223 79
360 110 225 275 363 510 427 108 29 403 32 540 5 281 -55 574 -171 782 -310
37 -25 108 -82 158 -127 101 -91 176 -133 239 -133 80 0 122 53 114 142 -8 86
-50 151 -187 294 -516 541 -771 1108 -711 1583 45 365 244 656 525 773 133 56
233 74 395 75 223 0 406 -44 604 -147 94 -48 112 -63 261 -212 244 -245 355
-308 540 -309 79 0 113 5 159 22 130 48 172 82 466 388 80 83 109 107 185 146
216 111 475 152 725 113z m-1511 -1870 c127 -1148 191 -2111 191 -2897 l0
-308 -214 0 -214 0 -7 188 c-9 225 0 1028 15 1307 25 489 60 945 105 1390 30
291 78 700 82 689 1 -5 20 -171 42 -369z m-2342 -1955 c4 -4 43 -19 86 -34 42
-16 77 -29 77 -31 0 -1 -34 -24 -75 -51 l-75 -49 0 -88 0 -88 -60 43 c-34 24
-67 47 -75 53 -12 8 -90 -11 -172 -42 -7 -3 1 31 19 81 l31 86 -39 56 c-21 30
-46 65 -54 76 -14 21 -14 21 79 16 l94 -4 55 75 55 74 23 -83 c13 -45 26 -86
31 -90z m4798 69 l50 -70 93 5 93 6 -53 -76 -52 -75 28 -80 c16 -44 27 -82 24
-84 -2 -2 -39 7 -83 20 l-79 25 -53 -43 c-102 -80 -93 -82 -93 21 l0 90 -75
48 c-41 27 -75 51 -75 55 0 3 33 15 73 28 39 13 77 27 83 32 6 5 22 45 34 89
13 44 26 80 29 80 3 0 29 -32 56 -71z m-1441 -1490 c30 -24 33 -52 8 -77 -18
-18 -67 -19 -1027 -25 -1110 -7 -1055 -10 -1055 52 0 59 -49 56 974 61 518 3
971 6 1007 8 54 2 71 -2 93 -19z m-1428 -351 c-3 -62 -17 -164 -29 -227 l-22
-114 -53 89 -53 89 20 85 c11 47 23 105 26 130 9 54 16 60 74 60 l44 0 -7
-112z m580 15 c-11 -158 -45 -442 -67 -564 -38 -215 -101 -431 -120 -412 -21
21 -102 381 -138 618 -14 90 -51 403 -51 433 l0 22 191 0 191 0 -6 -97z m358
85 c2 -7 11 -55 21 -106 l17 -92 -57 -63 c-32 -34 -61 -63 -65 -65 -9 -3 -29
132 -37 246 l-6 92 62 0 c41 0 63 -4 65 -12z m1223 -1392 c39 -33 36 -89 -7
-179 -89 -187 -270 -332 -485 -388 -101 -26 -285 -35 -385 -20 -96 15 -225 59
-296 102 -59 35 -154 115 -154 129 0 7 104 90 113 90 2 0 40 -22 84 -48 45
-27 125 -64 179 -82 91 -31 109 -34 219 -34 105 0 130 4 200 28 163 56 343
200 381 305 24 67 68 121 99 121 13 0 37 -11 52 -24z m-3427 4 c21 -11 53 -62
69 -113 36 -109 251 -267 426 -312 77 -20 231 -19 314 1 75 18 209 78 273 121
24 16 48 32 54 36 9 5 93 -49 122 -78 9 -8 -47 -63 -114 -111 -78 -56 -168
-98 -269 -125 -115 -31 -325 -32 -447 -1 -228 56 -406 191 -499 375 -54 110
-52 169 9 201 33 18 38 19 62 6z"/>
</g>
</svg>
